<svg width="118" height="48" viewBox="0 0 118 48" fill="none" xmlns="http://www.w3.org/2000/svg">
<path d="M25.8 15.184V17.584C25.8 17.824 25.656 17.968 25.416 17.968H19.464V22.792H23.976C24.216 22.792 24.36 22.936 24.36 23.176V25.576C24.36 25.84 24.216 25.96 23.976 25.96H19.464V33.616C19.464 33.856 19.32 34 19.08 34H16.584C16.32 34 16.2 33.856 16.2 33.616V15.184C16.2 14.944 16.32 14.8 16.584 14.8H25.416C25.656 14.8 25.8 14.944 25.8 15.184ZM37.5953 18.256V24.112C37.5953 25.72 36.9953 26.776 35.8433 27.28L37.4993 33.568C37.5713 33.856 37.4273 34 37.1633 34H34.6673C34.4273 34 34.3073 33.88 34.2593 33.664L32.6513 27.568H30.9953V33.616C30.9953 33.856 30.8513 34 30.6113 34H28.1152C27.8753 34 27.7313 33.856 27.7313 33.616V15.184C27.7313 14.944 27.8753 14.8 28.1152 14.8H34.1393C36.3953 14.8 37.5953 16 37.5953 18.256ZM30.9953 24.4H33.3713C33.9953 24.4 34.3313 24.064 34.3313 23.44V18.928C34.3313 18.304 33.9953 17.968 33.3713 17.968H30.9953V24.4ZM50.8305 34H48.2865C48.0705 34 47.9505 33.88 47.9025 33.664L47.2305 30.16H42.9585L42.3105 33.664C42.2625 33.88 42.1425 34 41.9265 34H39.3585C39.0945 34 38.9745 33.856 39.0465 33.592L43.0305 15.136C43.0785 14.896 43.2225 14.8 43.4385 14.8H46.7745C46.9905 14.8 47.1345 14.896 47.1825 15.136L51.1665 33.592C51.2145 33.856 51.1185 34 50.8305 34ZM46.6305 27.376L45.0945 19L43.5585 27.376H46.6305ZM51.3071 14.8H60.1391C60.4031 14.8 60.5231 14.944 60.5231 15.184V17.584C60.5231 17.824 60.4031 17.968 60.1391 17.968H57.3551V33.616C57.3551 33.88 57.2351 34 56.9711 34H54.4751C54.2351 34 54.0911 33.88 54.0911 33.616V17.968H51.3071C51.0671 17.968 50.9231 17.824 50.9231 17.584V15.184C50.9231 14.944 51.0671 14.8 51.3071 14.8ZM71.7838 15.184V17.584C71.7838 17.824 71.6878 17.992 71.3998 17.992H65.3998V22.792H69.9838C70.2238 22.792 70.3678 22.936 70.3678 23.2V25.576C70.3678 25.84 70.2238 25.984 69.9838 25.984H65.3998V30.832H71.3998C71.6878 30.832 71.7838 30.952 71.7838 31.216V33.616C71.7838 33.856 71.6878 34 71.3998 34H62.5678C62.3518 34 62.2078 33.856 62.2078 33.616V15.184C62.2078 14.944 62.3518 14.8 62.5678 14.8H71.3998C71.6878 14.8 71.7838 14.944 71.7838 15.184ZM83.814 18.256V24.112C83.814 25.72 83.214 26.776 82.062 27.28L83.718 33.568C83.79 33.856 83.646 34 83.382 34H80.886C80.646 34 80.526 33.88 80.478 33.664L78.87 27.568H77.214V33.616C77.214 33.856 77.07 34 76.83 34H74.334C74.094 34 73.95 33.856 73.95 33.616V15.184C73.95 14.944 74.094 14.8 74.334 14.8H80.358C82.614 14.8 83.814 16 83.814 18.256ZM77.214 24.4H79.59C80.214 24.4 80.55 24.064 80.55 23.44V18.928C80.55 18.304 80.214 17.968 79.59 17.968H77.214V24.4ZM93.5758 14.8H96.0718C96.3118 14.8 96.4558 14.944 96.4558 15.184V33.616C96.4558 33.856 96.3118 34 96.0718 34H93.6958C93.4798 34 93.3358 33.904 93.2638 33.688L89.5918 23.44H89.4718V33.616C89.4718 33.856 89.3518 34 89.0878 34H86.5918C86.3518 34 86.2078 33.856 86.2078 33.616V15.184C86.2078 14.944 86.3518 14.8 86.5918 14.8H88.9678C89.1838 14.8 89.3278 14.896 89.3998 15.112L93.0478 25.312H93.1918V15.184C93.1918 14.944 93.3118 14.8 93.5758 14.8ZM99.2481 14.8H101.744C101.984 14.8 102.128 14.944 102.128 15.184V33.616C102.128 33.856 101.984 34 101.744 34H99.2481C98.9841 34 98.8641 33.856 98.8641 33.616V15.184C98.8641 14.944 98.9841 14.8 99.2481 14.8Z" fill="white"/>
</svg>
