<svg width="258" height="136" viewBox="0 0 258 136" fill="none" xmlns="http://www.w3.org/2000/svg">
<path d="M0 116.208L39.9167 0H71.4583L111.083 116.396V132.25H0V116.208ZM55.6042 22.875C55.4792 23.7813 55.0938 25.5365 54.4583 28.1458C53.8333 30.7604 52.9167 34.1406 51.7083 38.2917C50.5104 42.4323 42.7708 66 28.4792 109H82.7083L60 39.8125L59.0208 36.3125C56.8542 28.5625 55.7135 24.0833 55.6042 22.875Z" fill="#152517"/>
<path d="M198 23.4167C197.276 27.1406 196.151 32.3333 194.625 39C193.094 45.6667 191.938 50.2396 191.146 52.7083L166.188 131.708H138L182.688 0H213.125L257.917 131.708H229.708L205.125 52.5208C204.51 50.7865 203.302 46.3125 201.5 39.1042C199.708 31.8958 198.542 26.6667 198 23.4167Z" fill="#152517"/>
<path d="M139.212 93.6042H140.462C150.129 93.6042 157.712 91.0729 163.212 86C168.712 80.9167 171.462 73.9688 171.462 65.1458C171.462 56.9688 168.905 50.4063 163.796 45.4583C158.697 40.5 151.733 38.0208 142.9 38.0208H139.212V93.6042ZM114.066 135.396V115.146H112.087C100.921 115.146 91.1289 113.182 82.7123 109.25C74.306 105.307 67.6914 99.4063 62.8581 91.5417C58.0248 83.6667 55.6081 74.9271 55.6081 65.3125C55.6081 56.0104 57.7539 47.6198 62.0456 40.1458C66.3373 32.6615 72.5352 26.8073 80.6498 22.5833C88.7591 18.349 98.306 16.2292 109.296 16.2292H114.066V0H139.212V16.2292H143.983C154.91 16.2292 164.426 18.349 172.525 22.5833C180.634 26.8073 186.848 32.6615 191.171 40.1458C195.504 47.6198 197.671 56.0104 197.671 65.3125C197.671 74.9271 195.254 83.6667 190.421 91.5417C185.587 99.4063 178.962 105.307 170.546 109.25C162.139 113.182 152.358 115.146 141.191 115.146H139.212V135.396H114.066ZM114.066 38.0208H110.379C101.546 38.0208 94.5716 40.4896 89.4623 45.4167C84.3633 50.3333 81.8164 56.9115 81.8164 65.1458C81.8164 73.7865 84.5143 80.6875 89.9206 85.8542C95.3373 91.0208 102.967 93.6042 112.816 93.6042H114.066V38.0208Z" fill="#DA9305"/>
</svg>
